<svg width="512" height="512" viewBox="0 0 512 512" fill="none" xmlns="http://www.w3.org/2000/svg">
<g clip-path="url(#clip0_5506_86)">
<rect width="512" height="512" rx="120" fill="url(#paint0_linear_5506_86)"/>
<path d="M378 56L196.13 56C189.911 56 186.07 62.7838 189.27 68.116L348.85 334.084C359.286 351.477 386 344.078 386 323.794L386 64C386 59.5817 382.418 56 378 56Z" fill="white"/>
<path d="M134 456L315.87 456C322.089 456 325.93 449.216 322.73 443.884L163.15 177.916C152.714 160.523 126 167.922 126 188.206L126 448C126 452.418 129.582 456 134 456Z" fill="white"/>
</g>
<defs>
<linearGradient id="paint0_linear_5506_86" x1="0" y1="0" x2="512" y2="512" gradientUnits="userSpaceOnUse">
<stop stop-color="#9333EA"/>
<stop offset="1" stop-color="#2563EB"/>
</linearGradient>
<clipPath id="clip0_5506_86">
<rect width="512" height="512" fill="white"/>
</clipPath>
</defs>
</svg>
